<svg xmlns="http://www.w3.org/2000/svg" viewBox="0 0 900 1200" fill="none">
  <rect width="900" height="1200" rx="48" fill="url(#bg)"/>
  <circle cx="132" cy="156" r="16" fill="#82D7FF" fill-opacity=".8"/>
  <circle cx="742" cy="978" r="24" fill="#82D7FF" fill-opacity=".55"/>
  <circle cx="164" cy="980" r="14" fill="#82D7FF" fill-opacity=".7"/>
  <path d="M-24 122c160 28 255 52 393 18 166-41 270-44 531 13V0H0v118c0 2-12 3-24 4Z" fill="url(#waveTop)"/>
  <path d="M-48 894c152-52 279-60 430-4 131 48 275 67 518-8v318H0V908c-14-3-31-7-48-14Z" fill="url(#waveBottom)"/>
  <path d="M62 332c114 52 237 74 372 44 128-28 243-28 404 14v664H62V332Z" fill="#fff" fill-opacity=".42"/>
  <path d="M62 370c114 52 237 74 372 44 128-28 243-28 404 14" stroke="#fff" stroke-opacity=".7" stroke-width="18" stroke-linecap="round"/>
  <path d="M62 968c113-53 237-75 372-45 128 29 243 29 404-12" stroke="#1575E4" stroke-opacity=".34" stroke-width="20" stroke-linecap="round"/>
  <g opacity=".28">
    <circle cx="764" cy="228" r="4" fill="#0F3B8F"/>
    <circle cx="788" cy="228" r="4" fill="#0F3B8F"/>
    <circle cx="812" cy="228" r="4" fill="#0F3B8F"/>
    <circle cx="764" cy="252" r="4" fill="#0F3B8F"/>
    <circle cx="788" cy="252" r="4" fill="#0F3B8F"/>
    <circle cx="812" cy="252" r="4" fill="#0F3B8F"/>
    <circle cx="764" cy="276" r="4" fill="#0F3B8F"/>
    <circle cx="788" cy="276" r="4" fill="#0F3B8F"/>
    <circle cx="812" cy="276" r="4" fill="#0F3B8F"/>
  </g>
  <defs>
    <linearGradient id="bg" x1="0" y1="0" x2="900" y2="1200" gradientUnits="userSpaceOnUse">
      <stop stop-color="#F7FBFF"/>
      <stop offset="1" stop-color="#E3F0FF"/>
    </linearGradient>
    <linearGradient id="waveTop" x1="94" y1="8" x2="812" y2="268" gradientUnits="userSpaceOnUse">
      <stop stop-color="#B7DEFF"/>
      <stop offset=".55" stop-color="#67B8FF"/>
      <stop offset="1" stop-color="#26BFD3"/>
    </linearGradient>
    <linearGradient id="waveBottom" x1="14" y1="860" x2="888" y2="1188" gradientUnits="userSpaceOnUse">
      <stop stop-color="#D2E8FF"/>
      <stop offset=".52" stop-color="#5EB7FF"/>
      <stop offset="1" stop-color="#0F63DC"/>
    </linearGradient>
  </defs>
</svg>
